HIERARCHY
ROOT Hips
{
	OFFSET 0.000000 0.000000 0.000000
	CHANNELS 6 Xposition Yposition Zposition Zrotation Yrotation Xrotation 
	JOINT LHipJoint
	{
		OFFSET 0.000000 0.000000 0.000000
		CHANNELS 3 Zrotation Yrotation Xrotation
		JOINT LeftUpLeg
		{
			OFFSET 1.363060 -1.794630 0.839290
			CHANNELS 3 Zrotation Yrotation Xrotation
			JOINT LeftLeg
			{
				OFFSET 2.448110 -6.726130 0.000000
				CHANNELS 3 Zrotation Yrotation Xrotation
				JOINT LeftFoot
				{
					OFFSET 2.562200 -7.039590 0.000000
					CHANNELS 3 Zrotation Yrotation Xrotation
					JOINT LeftToeBase
					{
						OFFSET 0.157640 -0.433110 2.322550
						CHANNELS 3 Zrotation Yrotation Xrotation
						End Site
						{
							OFFSET 0.000000 0.000000 0.000000
						}
					}
				}
			}
		}
	}
	JOINT RHipJoint
	{
		OFFSET 0.000000 0.000000 0.000000
		CHANNELS 3 Zrotation Yrotation Xrotation
		JOINT RightUpLeg
		{
			OFFSET -1.305520 -1.794630 0.839290
			CHANNELS 3 Zrotation Yrotation Xrotation
			JOINT RightLeg
			{
				OFFSET -2.542530 -6.985550 0.000000
				CHANNELS 3 Zrotation Yrotation Xrotation
				JOINT RightFoot
				{
					OFFSET -2.568260 -7.056230 0.000000
					CHANNELS 3 Zrotation Yrotation Xrotation
					JOINT RightToeBase
					{
						OFFSET -0.164730 -0.452590 2.363150
						CHANNELS 3 Zrotation Yrotation Xrotation
						End Site
						{
							OFFSET 0.000000 0.000000 0.000000
						}
					}
				}
			}
		}
	}
}
MOTION
Frames: 27
Frame Time: 0.008333
-0.458411 17.020026 -0.534429 15.232194 76.822773 20.083081 -10.065939 1.098345 2.781963 -9.674939 0.998328 -27.577984 -2.328135 0.432830 23.440240 0.829478 3.343018 -8.792606 -0.132700 0.000000 -31.620901 10.371115 -3.819292 -2.332764 3.675782 -17.877648 -0.591071 0.562157 -2.822371 36.164749 -0.094957 2.563513 7.073136 0.570600 0.000000 -71.513199
-0.258119 17.006716 -0.501585 15.304491 75.930824 19.772768 -10.113794 1.245884 2.548186 -10.014164 2.191856 -26.935795 -2.305572 0.517137 24.215677 0.797254 3.362125 -8.193639 -0.088700 0.000000 -31.374500 10.626599 -3.761168 -2.445504 2.470015 -18.810457 -1.884428 0.254567 -3.011555 39.449109 -0.296380 1.607723 8.572342 0.454100 -0.000000 -71.837499
-0.060300 16.991936 -0.466797 15.381464 75.035400 19.503054 -10.151975 1.391171 2.301561 -10.373515 3.528818 -26.341376 -2.297533 0.585730 24.918237 0.770981 3.366890 -7.759215 -0.059900 0.000000 -31.072500 10.857971 -3.669429 -2.534800 1.391916 -19.613559 -3.277380 -0.024527 -3.175509 42.678067 -0.550886 0.100649 9.600068 0.132300 0.000001 -70.535200
0.135016 16.975865 -0.430380 15.428547 74.139249 19.245879 -10.180051 1.531740 2.055308 -10.723648 4.921637 -25.782288 -2.302564 0.639529 25.551582 0.752331 3.365283 -7.529453 -0.049001 -0.000000 -30.725600 11.060991 -3.548786 -2.604706 0.464608 -20.285321 -4.759535 -0.265456 -3.322743 45.806739 -0.836780 -1.827428 10.041864 -0.362100 -0.000000 -67.640700
0.327958 16.958833 -0.392599 15.426619 73.244183 18.985512 -10.198260 1.665744 1.820875 -11.044227 6.286890 -25.239290 -2.318482 0.679693 26.117792 0.743486 3.373061 -7.524989 -0.057000 0.000000 -30.369500 11.234040 -3.405887 -2.659340 -0.299922 -20.831818 -6.321865 -0.463956 -3.461234 48.789372 -1.131486 -3.988074 9.823724 -0.938800 0.000000 -63.369300
0.518695 16.941308 -0.353740 15.359665 72.349923 18.708398 -10.207782 1.791865 1.607558 -11.321340 7.553450 -24.693143 -2.342268 0.707467 26.616352 0.747185 3.412847 -7.745746 -0.084001 0.000000 -30.057300 11.376705 -3.247904 -2.700621 -0.892312 -21.256204 -7.957202 -0.620428 -3.596017 51.577940 -1.414049 -6.170004 8.940856 -1.476600 -0.000000 -58.158900
0.707465 16.923876 -0.313936 15.224054 71.456162 18.410425 -10.209967 1.909405 1.421771 -11.548619 8.666542 -24.123915 -2.370262 0.724020 27.044293 0.766430 3.511607 -8.171722 -0.129500 0.000000 -29.848500 11.490104 -3.081289 -2.729320 -1.309691 -21.562329 -9.658325 -0.736972 -3.728925 54.130933 -1.665753 -8.169305 7.445552 -1.859100 -0.000000 -52.424200
0.894568 16.907124 -0.273228 15.018492 70.562375 18.088998 -10.206463 2.018128 1.266816 -11.724790 9.592130 -23.516321 -2.398543 0.730566 27.397560 0.804030 3.695946 -8.767698 -0.193800 -0.000000 -29.795300 11.575771 -2.911106 -2.744517 -1.551263 -21.751067 -11.417292 -0.815652 -3.858406 56.413026 -1.871721 -9.821540 5.445896 -2.010600 0.000001 -46.567800
1.080206 16.891640 -0.231545 14.748995 69.668869 17.745249 -10.198823 2.118303 1.142560 -11.853014 10.318750 -22.858529 -2.423385 0.728383 27.671586 0.861997 3.987657 -9.487475 -0.277900 0.000000 -29.931500 11.635660 -2.740937 -2.745034 -1.621137 -21.825409 -13.223481 -0.857024 -3.981077 58.398132 -2.020788 -11.013520 3.075533 -1.911100 0.000000 -40.851000
1.264624 16.877943 -0.188802 14.420696 68.776425 17.377906 -10.189010 2.210678 1.045967 -11.936992 10.856802 -22.143911 -2.441663 0.718946 27.862417 0.940896 4.398653 -10.279424 -0.382900 -0.000001 -30.266700 11.671307 -2.573246 -2.729426 -1.525746 -21.789184 -15.062618 -0.860739 -4.092508 60.067043 -2.106350 -11.688375 0.484839 -1.596300 0.000000 -35.470600
1.447943 16.866413 -0.144807 14.042669 67.887548 16.987527 -10.178911 2.296441 0.971429 -11.981058 11.234609 -21.368797 -2.451241 0.703841 27.966997 1.039497 4.928931 -11.091452 -0.509000 -0.000001 -30.786200 11.684256 -2.409662 -2.696953 -1.275260 -21.650060 -16.916319 -0.826424 -4.188495 61.406497 -2.126504 -11.839529 -2.174254 -1.142200 0.000000 -30.573500
1.630302 16.857356 -0.099428 13.620278 67.006183 16.570057 -10.171115 2.377055 0.911974 -11.986502 11.494273 -20.533731 -2.451092 0.684759 27.983525 1.154294 5.563989 -11.874197 -0.653500 -0.000000 -31.458101 11.675335 -2.251374 -2.647349 -0.880218 -21.418489 -18.763679 -0.755486 -4.265252 62.408215 -2.084958 -11.507762 -4.750404 -0.642901 -0.000000 -26.338600
1.811730 16.850887 -0.052503 13.161681 66.138051 16.125052 -10.167703 2.454037 0.859828 -11.953993 11.683285 -19.640884 -2.441436 0.663184 27.910738 1.279876 6.277618 -12.585080 -0.810800 -0.000001 -32.241000 11.645802 -2.098801 -2.581720 -0.353681 -21.109233 -20.584690 -0.652065 -4.320364 63.071336 -1.990982 -10.773925 -7.106529 -0.185700 -0.000000 -22.970100
1.992255 16.847003 -0.003862 12.673724 65.290297 15.651662 -10.170989 2.528995 0.808243 -11.881274 11.849429 -18.695220 -2.423532 0.640321 27.748725 1.409136 7.033132 -13.190435 -0.971700 0.000000 -33.092000 11.596403 -1.952380 -2.501991 0.293394 -20.740828 -22.361656 -0.523286 -4.352545 63.402717 -1.859306 -9.754077 -9.132938 0.169400 -0.000000 -20.670200
2.171871 16.845576 0.046582 12.163299 64.471854 15.151257 -10.182810 2.603362 0.751833 -11.765173 12.034019 -17.702572 -2.399398 0.616974 27.498577 1.534161 7.788383 -13.666977 -1.125000 0.000000 -33.972600 11.527744 -1.812247 -2.411806 1.050985 -20.336485 -24.081534 -0.377725 -4.362018 63.417638 -1.708749 -8.588030 -10.767571 0.401200 -0.000000 -19.537500
2.350545 16.846332 0.098937 11.638278 63.692139 14.628200 -10.204345 2.678398 0.687492 -11.602453 12.267720 -16.669997 -2.371529 0.593515 27.162696 1.647110 8.500039 -14.002493 -1.259200 0.000000 -34.851000 11.440098 -1.678579 -2.315955 1.911036 -19.922050 -25.736315 -0.223289 -4.350278 63.139138 -1.560218 -7.424217 -12.009102 0.523900 0.000000 -19.484899
2.528255 16.848941 0.153366 11.106794 62.960598 14.089874 -10.235939 2.755066 0.614258 -11.390464 12.568208 -15.605007 -2.342503 0.569998 26.745366 1.741214 9.128609 -14.195617 -1.364500 -0.000000 -35.704500 11.333422 -1.551636 -2.220252 2.867323 -19.524278 -27.322162 -0.065430 -4.319736 62.595085 -1.434341 -6.402891 -12.912687 0.573700 0.000000 -20.231801
2.704975 16.853034 0.209911 10.575402 62.285967 13.543898 -10.277349 2.834102 0.533529 -11.127880 12.940036 -14.515347 -2.314596 0.546244 26.252620 1.811439 9.641953 -14.253932 -1.434000 0.000000 -36.520401 11.207082 -1.432228 -2.130095 3.915758 -19.166470 -28.837855 0.093977 -4.273018 61.814231 -1.349104 -5.638206 -13.579037 0.592600 -0.000001 -21.314800
2.880693 16.858196 0.268772 10.050884 61.674743 13.000423 -10.327438 2.915866 0.448174 -10.815532 13.375960 -13.409504 -2.289601 0.521992 25.692440 1.855101 10.019125 -14.192023 -1.465400 0.000001 -37.296900 11.060480 -1.321321 -2.049869 5.052556 -18.866073 -30.283762 0.255899 -4.212396 60.821956 -1.318298 -5.206625 -14.124559 0.616200 0.000000 -22.242500
3.055472 16.864083 0.330059 9.538162 61.130705 12.469276 -10.384390 3.000373 0.361583 -10.456802 13.859785 -12.294816 -2.268649 0.497043 25.073418 1.871941 10.251693 -14.028275 -1.460000 -0.000000 -38.043101 10.893287 -1.219875 -1.982282 6.273168 -18.632450 -31.659134 0.422532 -4.138982 59.633270 -1.350801 -5.142771 -14.646444 0.668699 -0.000000 -22.691800
3.229317 16.870372 0.393982 9.041833 60.654890 11.959981 -10.446082 3.087563 0.277806 -10.057256 14.369156 -11.177217 -2.251996 0.471268 24.404670 1.863956 10.344206 -13.781625 -1.422300 0.000000 -38.779200 10.705425 -1.129129 -1.927656 7.571050 -18.467084 -32.960907 0.597247 -4.052546 58.253524 -1.450412 -5.436513 -15.224276 0.765700 -0.000000 -22.387300
3.402318 16.876799 0.460713 8.564684 60.244981 11.479896 -10.510179 3.177154 0.200106 -9.623993 14.880217 -10.060810 -2.239208 0.444750 23.694556 1.834854 10.312157 -13.469338 -1.358600 -0.000001 -39.534100 10.497553 -1.050092 -1.884612 8.936748 -18.364433 -34.182448 0.783097 -3.951435 56.677791 -1.615586 -6.038845 -15.901645 0.915300 0.000000 -21.207300
3.574519 16.883126 0.530509 8.111556 59.896387 11.036399 -10.574197 3.269029 0.131466 -9.166488 15.369205 -8.946858 -2.229066 0.417661 22.949858 1.789634 10.181043 -13.103890 -1.275600 0.000000 -40.341300 10.271405 -0.983923 -1.849233 10.356476 -18.312623 -35.313594 0.981501 -3.832667 54.891177 -1.838985 -6.872692 -16.673642 1.117399 0.000000 -19.262100
3.746104 16.889148 0.603566 7.681444 59.600582 10.631129 -10.636412 3.362904 0.072527 -8.691304 15.819126 -7.835829 -2.220156 0.390733 22.177610 1.733246 9.978319 -12.693533 -1.179000 -0.000000 -41.235200 10.029391 -0.931479 -1.817521 11.816133 -18.295336 -36.339927 1.193176 -3.692389 52.875385 -2.107332 -7.840764 -17.508277 1.363800 0.000000 -16.707400
3.917132 16.894672 0.680102 7.279125 59.348773 10.267724 -10.694893 3.458962 0.023782 -8.208481 16.216100 -6.725000 -2.210617 0.364654 21.382259 1.670887 9.736048 -12.240005 -1.073200 0.000000 -42.242699 9.775879 -0.893977 -1.783231 13.295415 -18.293382 -37.245283 1.415202 -3.526458 50.608940 -2.401053 -8.845592 -18.310559 1.629500 0.000000 -14.109600
4.087803 16.899483 0.760293 6.902047 59.130032 9.942849 -10.749179 3.557236 -0.016727 -7.721237 16.557217 -5.613324 -2.198895 0.340752 20.571040 1.606250 9.478896 -11.741192 -0.960900 0.000000 -43.381600 9.515346 -0.872477 -1.741061 14.777151 -18.285688 -38.010727 1.645577 -3.330670 48.076351 -2.697467 -9.793384 -18.995293 1.881900 -0.000000 -11.861700
4.258227 16.903352 0.844267 6.550669 58.934548 9.654109 -10.798889 3.657953 -0.051592 -7.233913 16.844939 -4.499796 -2.183625 0.320430 19.752075 1.542157 9.227363 -11.191209 -0.843100 -0.000000 -44.655200 9.253513 -0.867737 -1.684980 16.241228 -18.250372 -38.618737 1.881315 -3.101351 45.269836 -2.973030 -10.609776 -19.467943 2.080601 0.000000 -10.430300
